<?xml version="1.0" encoding="utf-8"?>
<!-- Generator: Adobe Illustrator 17.1.0, SVG Export Plug-In . SVG Version: 6.00 Build 0)  -->
<!DOCTYPE svg PUBLIC "-//W3C//DTD SVG 1.1//EN" "http://www.w3.org/Graphics/SVG/1.1/DTD/svg11.dtd">
<svg version="1.1" id="Layer_1" xmlns="http://www.w3.org/2000/svg" xmlns:xlink="http://www.w3.org/1999/xlink" x="0px" y="0px"
	 viewBox="15.2 302.5 953.7 190.3" enable-background="new 15.2 302.5 953.7 190.3" xml:space="preserve">
<g>
	<path fill="#78C257" d="M69.7,346.3c12.1,0,21.7,3.5,30.9,11.5v-9.2h27.1v109.1h-27.1v-9.2c-9.2,8.1-18.8,11.5-30.9,11.5
		c-31.9,0-54.5-24.8-54.5-56.8S37.8,346.3,69.7,346.3z M100.6,420.2v-34.2c-8.1-10.6-18.8-14.2-27.3-14.2
		c-16.9,0-30.1,13.4-30.1,31.3c0,17.9,13.1,31.3,30.1,31.3C81.6,434.4,92.5,431,100.6,420.2z M144,396.4c0-28,22.3-50.1,50.5-50.1
		c26.9,0,49.9,21.9,49.9,50.1v61.4h-27.1v-62.2c0-12.9-9.8-23.8-22.7-23.8c-13.4,0-23.4,10.6-23.4,23.8v62.2H144V396.4z
		 M311.4,346.3c12.1,0,21.7,3.5,30.9,11.5v-41.9h27.1v141.9h-27.1v-9.2c-9.2,8.1-18.8,11.5-30.9,11.5c-31.9,0-54.5-24.8-54.5-57
		S279.4,346.3,311.4,346.3z M342.1,420.2v-34.2c-8.1-10.6-18.8-14.2-27.3-14.2c-16.9,0-30.1,13.4-30.1,31.3
		c0,17.9,13.1,31.3,30.1,31.3C323.3,434.4,334.1,431,342.1,420.2z M385.7,384.3c0-22.7,16.5-38,38.6-38h15.2V372h-10.9
		c-10,0-15.9,6.3-15.9,16.3v69.5h-27.1V384.3L385.7,384.3z M441.2,403.1c0-31.7,25.9-57,57.6-57c31.7,0,57.6,25,57.6,57
		c0,32.6-26.1,57-57.6,57S441.2,435.6,441.2,403.1z M528.2,403.1c0-18.2-13.6-31.3-29.4-31.3c-16.3,0-29.4,13.1-29.4,31.3
		c0,18.4,13.1,31.3,29.4,31.3C515.1,434.4,528.2,421.4,528.2,403.1z M565.4,319.4c0-9.2,7.7-16.9,16.9-16.9
		c9.2,0,16.9,7.7,16.9,16.9s-7.7,16.9-16.9,16.9C573.1,336.3,565.4,328.6,565.4,319.4z M568.7,348.4h27.1v109.4h-27.1V348.4z
		 M662.6,346.3c12.1,0,21.7,3.5,30.9,11.5v-41.9h27.1v141.9h-27.1v-9.2c-9.2,8.1-18.8,11.5-30.9,11.5c-31.9,0-54.5-24.8-54.5-57
		S630.7,346.3,662.6,346.3z M693.5,420.2v-34.2c-8.1-10.6-18.8-14.2-27.3-14.2c-16.9,0-30.1,13.4-30.1,31.3
		c0,17.9,13.1,31.3,30.1,31.3C674.7,434.4,685.4,431,693.5,420.2z"/>
	<path fill="#78C257" d="M739.4,319.4c0-9.2,7.7-16.9,16.9-16.9c9.2,0,16.9,7.7,16.9,16.9s-7.7,16.9-16.9,16.9
		C747.1,336.3,739.4,328.6,739.4,319.4z M742.7,348.4h27.1v109.4h-27.1V348.4z"/>
	<path fill="#78C257" d="M792.2,348c0-16.9,11.3-32.3,33.2-32.3h22.7V340H831c-8.1,0-11.9,4.4-11.9,12.7v1.7h26.9v23.4h-26.9v79.9
		H792V348H792.2z"/>
	<path fill="#78C257" d="M867.1,463.2c7.1,4.4,12.7,5.2,15.7,5.2c6.7,0,11.3-3.5,12.9-7.7l0.6-1.5l-40.9-110.8h31.7l25.7,77.4
		l25.5-77.4H969l-40.1,109.4c-10,27.8-26.7,35.1-42.4,35.1c-11.9,0-22.5-3.1-30.7-8.6L867.1,463.2z"/>
</g>
</svg>
