<?xml version="1.0" encoding="utf-8"?>
<!-- Generator: Adobe Illustrator 18.1.0, SVG Export Plug-In . SVG Version: 6.00 Build 0)  -->
<svg version="1.1" id="FB" xmlns="http://www.w3.org/2000/svg" xmlns:xlink="http://www.w3.org/1999/xlink" x="0px" y="0px"
	 width="57.2px" height="57px" viewBox="0 0 57.2 57" enable-background="new 0 0 57.2 57" xml:space="preserve">
<path fill-rule="evenodd" clip-rule="evenodd" fill="#426198" d="M28.6,0c15.8,0,28.6,12.8,28.6,28.5S44.4,57,28.6,57S0,44.2,0,28.5
	S12.8,0,28.6,0z"/>
<path fill="#FFFFFF" d="M25.4,42V29.3h-3.3v-4.6h3.3c0,0,0-1.9,0-3.9c0-3.1,2-5.9,6.5-5.9c1.8,0,3.2,0.2,3.2,0.2L35,19.4
	c0,0-1.4,0-2.9,0c-1.6,0-1.9,0.8-1.9,2c0,1,0-2.1,0,3.3h4.9l-0.2,4.6h-4.7V42H25.4z"/>
</svg>
