<?xml version="1.0" encoding="utf-8"?>
<!-- Generator: Adobe Illustrator 18.0.0, SVG Export Plug-In . SVG Version: 6.00 Build 0)  -->
<!DOCTYPE svg PUBLIC "-//W3C//DTD SVG 1.1//EN" "http://www.w3.org/Graphics/SVG/1.1/DTD/svg11.dtd">
<svg version="1.1" id="TWITTER" xmlns="http://www.w3.org/2000/svg" xmlns:xlink="http://www.w3.org/1999/xlink" x="0px" y="0px"
	 width="57.2px" height="57px" viewBox="0 0 57.2 57" enable-background="new 0 0 57.2 57" xml:space="preserve">
<path fill="#DF6900" d="M28.6,0c15.8,0,28.6,12.8,28.6,28.5S44.4,57,28.6,57S0,44.2,0,28.5S12.8,0,28.6,0z"/>
<path display="none" fill="#FFFFFF" d="M41.7,20.3c-1,0.4-2,0.7-3.1,0.9c1.1-0.7,2-1.7,2.4-3c-1,0.6-2.2,1.1-3.4,1.3
	c-1-1-2.4-1.7-3.9-1.7c-3,0-5.4,2.4-5.4,5.4c0,0.4,0,0.8,0.1,1.2c-4.5-0.2-8.4-2.4-11.1-5.6c-0.5,0.8-0.7,1.7-0.7,2.7
	c0,1.9,0.9,3.5,2.4,4.5c-0.9,0-1.7-0.3-2.4-0.7c0,0,0,0,0,0.1c0,2.6,1.8,4.8,4.3,5.3c-0.5,0.1-0.9,0.2-1.4,0.2c-0.3,0-0.7,0-1-0.1
	c0.7,2.1,2.7,3.7,5,3.7c-1.8,1.4-4.1,2.3-6.7,2.3c-0.4,0-0.9,0-1.3-0.1c2.4,1.5,5.2,2.4,8.2,2.4C33.6,39.2,39,31,39,23.8
	c0-0.2,0-0.5,0-0.7C40.1,22.4,41,21.4,41.7,20.3z"/>
<rect x="19.9" y="19.2" fill="none" stroke="#FFFFFF" stroke-width="2.5" stroke-miterlimit="10" width="17.3" height="17.3"/>
<rect x="24.4" y="23.6" fill="#FFFFFF" width="8.3" height="8.3"/>
</svg>
