<?xml version="1.0" encoding="utf-8"?>
<!-- Generator: Adobe Illustrator 18.1.0, SVG Export Plug-In . SVG Version: 6.00 Build 0)  -->
<svg version="1.1" id="G_x2B__copy" xmlns="http://www.w3.org/2000/svg" xmlns:xlink="http://www.w3.org/1999/xlink" x="0px"
	 y="0px" width="57.2px" height="57px" viewBox="0 0 57.2 57" enable-background="new 0 0 57.2 57" xml:space="preserve">
<path fill-rule="evenodd" clip-rule="evenodd" fill="#C64E41" d="M28.6,0c15.8,0,28.6,12.8,28.6,28.5S44.4,57,28.6,57S0,44.2,0,28.5
	S12.8,0,28.6,0z"/>
<g>
	<g>
		<path fill="#FFFFFF" d="M37.6,26.3V22h-2.1v4.3h-4.3v2.1h4.3v4.3h2.1v-4.3h4.3v-2.1H37.6z M31,17c0,0-5.5,0-7.4,0
			c-3.3,0-6.4,2.5-6.4,5.3c0,2.9,2.2,5.3,5.6,5.3c0.2,0,0.5,0,0.7,0c-0.2,0.4-0.4,0.9-0.4,1.4c0,0.8,0.4,1.5,1,2c-0.4,0-0.8,0-1.3,0
			c-4.1,0-7.2,2.6-7.2,5.2c0,2.6,3.4,4.3,7.5,4.3c4.7,0,7.2-2.6,7.2-5.2c0-2.1-0.6-3.4-2.6-4.7c-0.7-0.5-1.9-1.6-1.9-2.3
			c0-0.8,0.2-1.2,1.4-2.1c1.2-0.9,2.1-2.3,2.1-3.8c0-1.8-0.8-3.6-2.4-4.2h2.3L31,17z M28.4,34.9c0.1,0.2,0.1,0.5,0.1,0.8
			c0,2.1-1.4,3.8-5.3,3.8c-2.8,0-4.9-1.8-4.9-3.9c0-2.1,2.5-3.8,5.3-3.8c0.7,0,1.3,0.1,1.8,0.3C27,33.1,28.1,33.7,28.4,34.9z
			 M23.9,26.9c-1.9-0.1-3.7-2.1-4-4.6c-0.3-2.5,0.9-4.4,2.8-4.3c1.9,0.1,3.7,2,4,4.5C27,25,25.8,27,23.9,26.9z"/>
	</g>
</g>
</svg>
